<svg width="64" height="64" viewBox="0 0 64 64" fill="none" xmlns="http://www.w3.org/2000/svg">
<rect width="64" height="64" rx="16" fill="url(#paint0_linear_14830_77020)"/>
<path d="M36.1421 19.7346V11.8516H27.8916V19.7346L21.0454 23.6761L25.1707 30.8146L32.0168 26.8731L38.863 30.8146L42.9883 23.6761L36.1421 19.7346Z" fill="white"/>
<path d="M47.1138 38.6975V30.8145H38.8633V38.6975L32.0171 42.639L36.1423 49.7775L42.9885 45.836L49.8347 49.7775L53.9599 42.639L47.1138 38.6975Z" fill="white"/>
<path d="M25.1709 30.8145H16.9204V38.6975L10.0742 42.639L14.1995 49.7775L21.0456 45.836L27.8918 49.7775L32.0171 42.639L25.1709 38.6975V30.8145Z" fill="white"/>
<defs>
<linearGradient id="paint0_linear_14830_77020" x1="9.37258" y1="54.6274" x2="49.1259" y2="15.4074" gradientUnits="userSpaceOnUse">
<stop stop-color="#7D2EBD"/>
<stop offset="1" stop-color="#C054EE"/>
</linearGradient>
</defs>
</svg>
